<svg xmlns="http://www.w3.org/2000/svg" width="1024" height="1024" preserveAspectRatio="none" style="display:block" viewBox="0 0 2048 2048"><defs><linearGradient id="b" x1="914.618" x2="914.346" y1="949.313" y2="956.648" gradientUnits="userSpaceOnUse"><stop class="stop0" offset="0" stop-color="#686b98"/><stop class="stop1" offset="1" stop-color="#8181a2"/></linearGradient><linearGradient id="a" x1="722.472" x2="810.572" y1="995.198" y2="958.805" gradientUnits="userSpaceOnUse"><stop class="stop0" offset="0" stop-color="#8684aa"/><stop class="stop1" offset="1" stop-color="#a8a9c4"/></linearGradient></defs><path fill="#2f3168" d="m1281.34 950.293 96.06-.247c17.77 41.959 33.97 85.854 49.35 128.764 7.26 20.25 13.46 40.94 20.95 61.14l26.83 70.28c4.41 11.45 9.3 23.77 13.15 35.46.72 2.18.7 13.72.72 16.66-12.76-.04-74.88 2.28-81.01-.83-3.74-1.89-6.5-6.7-8.29-10.29-4.92-9.89-7.99-21.3-11.57-31.75q-10.425-29.94-19.83-60.24c-1-4.1-3-8.44-4.64-12.39-37.75 50.55-21.07 50.79-87.26 50.66-2.71 19.21-12.13 47.55-19.91 65.15-11.4-1.06-23.99.23-35.42-.34-13.12-.64-30.63 2.07-43.19-.39-7.05-11.04 15.77-66.31 20.64-80.03l41.79-115.48c14.54-40.32 23.4-76.453 41.63-116.127m49.41 181.727c8.97-.04 19.13.16 28-.23-3.32-13.92-19.97-76.96-30.85-83.33-.1-.06-.21-.09-.32-.14-4.55 11.88-29.42 71.46-25.53 81.05.59 1.46 2.17 1.72 3.57 2.09 7.3 1.9 17.52.68 25.13.56M1065.09 950.432c41.73-2.309 80.25 2.015 114.49 29.603 18.76 15.116-19.27 45.455-27.7 58.795-4.92 7.78-34.01-11.67-42.17-14.92a76.4 76.4 0 0 0-25-5.4c-11.04-.58-32.11 2.21-32.81 17.31-.12 5.73 4.5 14.81 9.68 17.43 35.01 17.71 74.2 22.6 104.15 50.52 17.52 16.34 23.35 29.59 24.3 53.74 1.17 30.11-5.55 54.51-26.99 76.53-26.91 27.79-58.53 33-95.08 34.13-35.73-.45-78.62-13.61-105.001-38.67-3.602-3.42-7.903-7.97-7.694-13.3.388-9.86 24.013-38.66 31.607-46.25 2.689-2.68 5.648-5.6 9.663-5.84 15.015-.88 46.745 33.2 79.015 32.73 9.39-.14 19.98-3.77 26.49-10.78 2.98-3.2 5.12-7.55 4.73-12-2.06-24.02-57.92-36.73-76.68-44.38-11.7-4.78-22.86-10.81-32.624-18.89-13.071-10.81-24.988-25.53-26.534-42.98-2.547-28.73-2.64-59.19 16.779-82.397 20.149-24.077 47.129-32.254 77.379-34.981"/><path fill="#53a650" d="M918.967 570.077c74.455-.177 150.943-.778 225.293.067-.09 23.972-13.71 74.146-19.68 99.308a3366 3366 0 0 0-28.43 126.727c-3.36 17.997-5.23 31.703-11.68 48.824-14.13.211-97.583 2.511-104.781-.931-7.22-11.136-20.919-84.396-25.44-103.954a5300 5300 0 0 1-22.845-101.339c-5.145-22.869-12.445-45.244-12.437-68.702"/><path fill="#2f3168" d="M866.395 950.927c22.716-1.055 49.063-.321 72.131-.602 14.215-.173 41.56-1.053 54.301.201 1.465 2.08 1.173 1.265 1.813 3.624-.375 1.583-1.827 7.426-2.674 8.629-9.247 13.128-29.353 44.151-39.774 53.471-18.41 2.94-40.135 1.42-58.988 2.18.774 13.17-.016 26.82-.112 40.09l-.311 70.1-.362 76.39c-.028 13.94 1.065 44.04-2.08 56.12-8.529 3.62-64.985.13-77.093 1.37-7.425.77-5.262-22.25-5.141-26.6a646 646 0 0 1-.09-55.42c-.447-5.02-.275-14.63-.349-20.01-1.879-31.48-.615-63.7-.638-95.28-.008-12.33.861-25.33-.52-37.55-.218-1.92-.521-5.63-1.812-7.13-6.665-7.72-68.173 2.34-79.034-6.29 1.272-18.516.432-44.39.376-63.43 11.986-.989 38.641-.175 51.888-.134 28.876.088 59.76-.608 88.469.271"/><path fill="url(#a)" d="M726.038 950.79c11.986-.989 38.641-.175 51.888-.134 28.876.088 59.76-.608 88.469.271-6.071 3.906-22.925 1.7-31.448 2.939l-25.123.146.195 2.115-75.456.923-1.937 52.79c12.18.46 32.199.67 43.684 2.25-6.991 1.11-13.017-.04-18.9 1.67-6.781.61-22.744.44-30.121.57l-1.627-.11c1.272-18.516.432-44.39.376-63.43"/><path fill="#5e649f" d="M726.038 950.79c11.986-.989 38.641-.175 51.888-.134 28.876.088 59.76-.608 88.469.271-6.071 3.906-22.925 1.7-31.448 2.939l-25.123.146c-22.867-.022-59.03 1.038-81.121-.908-1.222 20.839-.24 40.556-1.414 61.226l-1.627-.11c1.272-18.516.432-44.39.376-63.43"/><path d="M776.31 1012.09c7.474-.42 27.526-.7 34.362 1.38-.196 38.49.028 77.38-2.632 115.78-.687 9.92-.172 21.13-.374 31.22-1.879-31.48-.615-63.7-.638-95.28-.008-12.33.861-25.33-.52-37.55-.218-1.92-.521-5.63-1.812-7.13-6.665-7.72-68.173 2.34-79.034-6.29l1.627.11c7.377-.13 23.34.04 30.121-.57 5.883-1.71 11.909-.56 18.9-1.67"/><path fill="#9293af" d="M776.31 1012.09c7.474-.42 27.526-.7 34.362 1.38-9.477 1.33-42.07.41-53.262.29 5.883-1.71 11.909-.56 18.9-1.67"/><path fill="url(#b)" d="M866.395 950.927c22.716-1.055 49.063-.321 72.131-.602 14.215-.173 41.56-1.053 54.301.201 1.465 2.08 1.173 1.265 1.813 3.624-25.576 2.283-61.124 1.124-87.312 1.748-11.632.277-47.346.96-58.161-.025-5.409-1.336-8.755-1.54-14.22-2.007 8.523-1.239 25.377.967 31.448-2.939"/><path fill="#090b22" d="M808.015 1180.48c.868 1.12 2.125 2.84 2.207 4.27.477 8.36 3.097 46-2.117 51.15a646 646 0 0 1-.09-55.42"/><path fill="#9293af" d="M834.947 953.866c5.465.467 8.811.671 14.22 2.007l-39.148.254-.195-2.115z"/><path fill="#53a650" d="M1161.91 603.063c20.29-.293 25.21 3.862 42.94 12.476 36.97 17.958 75.08 33.976 111.41 53.268 15.24 7.677 15.8 15.129 5.64 28.179-20.98 26.932-43.16 52.675-62.2 81.128-5.31 7.366-8.59 13.542-15.57 19.245-9.45 7.71-18.54 23.88-26.52 33.835a2256 2256 0 0 1-38.75 49.972c-17.89-1.737-62.99-20.392-78.07-30.305.5-27.461 21.48-94.361 28.83-123.452 10.2-40.404 20.72-84.639 32.29-124.346M888.036 604.316c15.617-1.444 16.135 3.991 20.136 18.185 14.171 50.263 23.638 101.8 38.57 151.863 7.853 26.33 15.693 49.457 18.534 77.072-9.236 4.984-22.896 9.706-32.701 14.134-6.909 3.121-37.45 17.837-43.079 15.288-10.972-4.969-27.327-29.808-35.233-40.36-2.468-2.614-11.391-14.89-13.969-18.257l-30.85-40.036a4105 4105 0 0 0-43.332-54.578c-9.232-11.436-33.526-35.126-28.146-49.3 13.513-12.451 96.329-48.856 117.282-58.734 7.326-3.454 24.941-12.046 32.788-15.277"/><path fill="#2f3168" d="M588.425 950.396c11.119-.005 64.207-1.402 70.413 1.355 3.276 10.542 2.186 61.759 2.274 76.989l1.127 160.84c35.77 3.66 68.589 1.1 104.348 1.15 5.937.01 16.573-.76 20.428 3.08 4.395 15.88-18.206 29.65-28.486 48.24l-.628 1.17c-3.748 7.3-10.55 14.99-17.958 18.53-4.383 2.1-10.68 3.64-15.381 3.54-9.75-.2-27.461-.26-36.245-.82-16.315-1.04-95.942.73-107.038-2.89-1.55-5.13-1.979-30.1-1.678-35.39 1.446-25.39-2.027-271.157 1.351-275.397z"/></svg>