<svg xmlns="http://www.w3.org/2000/svg" width="600" height="600"><path fill="#fefefe" d="m299.563-.313 3.357.007C318.817-.256 334.334.064 350 3l3.18.554c25.183 4.46 50.707 12.123 73.721 23.417 2.306 1.13 4.628 2.225 6.95 3.322 24.958 11.954 47.388 27.971 67.81 46.586a327 327 0 0 0 6.464 5.683C514.983 88.553 521.048 95.128 527 102l1.617 1.851c14.55 16.764 27.271 35.37 37.383 55.149l1.389 2.703C575.196 177.054 581.673 192.624 587 209l.882 2.7c9.17 28.634 12.535 57.933 12.43 87.863l-.006 3.357c-.05 15.897-.37 31.414-3.306 47.08l-.554 3.18c-4.46 25.183-12.123 50.707-23.417 73.721-1.13 2.306-2.225 4.628-3.322 6.95-11.954 24.958-27.971 47.388-46.586 67.81a327 327 0 0 0-5.683 6.464c-5.99 6.858-12.565 12.923-19.438 18.875l-1.851 1.617C479.385 543.167 460.779 555.888 441 566l-2.703 1.389C422.946 575.196 407.376 581.673 391 587l-2.7.882c-28.634 9.17-57.933 12.535-87.863 12.43l-3.357-.006c-15.897-.05-31.414-.37-47.08-3.306l-3.18-.554c-25.183-4.46-50.707-12.123-73.721-23.417-2.306-1.13-4.628-2.225-6.95-3.322-24.958-11.954-47.388-27.971-67.81-46.586a327 327 0 0 0-6.464-5.683C85.017 511.448 78.952 504.873 73 498l-1.617-1.851C56.833 479.385 44.112 460.779 34 441l-1.389-2.703C24.804 422.946 18.327 407.376 13 391l-.882-2.7c-9.17-28.634-12.535-57.933-12.43-87.863l.006-3.357C-.256 281.183.064 265.666 3 250l.554-3.18c4.46-25.183 12.123-50.707 23.417-73.721 1.13-2.306 2.225-4.628 3.322-6.95 11.954-24.958 27.971-47.388 46.586-67.81a327 327 0 0 0 5.683-6.464C88.553 85.017 95.128 78.952 102 73l1.851-1.617C120.615 56.833 139.221 44.112 159 34l2.703-1.389C177.054 24.804 192.624 18.327 209 13l2.7-.882c28.634-9.17 57.933-12.535 87.863-12.43"/><path fill="#4b3290" d="m299.563-.313 3.357.007C318.817-.256 334.334.064 350 3l3.18.554c25.183 4.46 50.707 12.123 73.721 23.417 2.306 1.13 4.628 2.225 6.95 3.322 24.958 11.954 47.388 27.971 67.81 46.586a327 327 0 0 0 6.464 5.683C514.983 88.553 521.048 95.128 527 102l1.617 1.851c14.55 16.764 27.271 35.37 37.383 55.149l1.389 2.703C575.196 177.054 581.673 192.624 587 209l.882 2.7c9.17 28.634 12.535 57.933 12.43 87.863l-.006 3.357c-.05 15.897-.37 31.414-3.306 47.08l-.554 3.18c-4.46 25.183-12.123 50.707-23.417 73.721-1.13 2.306-2.225 4.628-3.322 6.95-11.954 24.958-27.971 47.388-46.586 67.81a327 327 0 0 0-5.683 6.464c-5.99 6.858-12.565 12.923-19.438 18.875l-1.851 1.617C479.385 543.167 460.779 555.888 441 566l-2.703 1.389C422.946 575.196 407.376 581.673 391 587l-2.7.882c-28.634 9.17-57.933 12.535-87.863 12.43l-3.357-.006c-15.897-.05-31.414-.37-47.08-3.306l-3.18-.554c-25.183-4.46-50.707-12.123-73.721-23.417-2.306-1.13-4.628-2.225-6.95-3.322-24.958-11.954-47.388-27.971-67.81-46.586a327 327 0 0 0-6.464-5.683C85.017 511.448 78.952 504.873 73 498l-1.617-1.851C56.833 479.385 44.112 460.779 34 441l-1.389-2.703C24.804 422.946 18.327 407.376 13 391l-.882-2.7c-9.17-28.634-12.535-57.933-12.43-87.863l.006-3.357C-.256 281.183.064 265.666 3 250l.554-3.18c4.46-25.183 12.123-50.707 23.417-73.721 1.13-2.306 2.225-4.628 3.322-6.95 11.954-24.958 27.971-47.388 46.586-67.81a327 327 0 0 0 5.683-6.464C88.553 85.017 95.128 78.952 102 73l1.851-1.617C120.615 56.833 139.221 44.112 159 34l2.703-1.389C177.054 24.804 192.624 18.327 209 13l2.7-.882c28.634-9.17 57.933-12.535 87.863-12.43M185 66l-2.4 1.144C159.886 78.136 139.126 93.524 121 111l-2.096 2.014C109.122 122.46 100.005 132 92 143l-2.57 3.45C83.39 154.637 77.987 163.132 73 172l-1.317 2.34c-32.428 58.255-41.095 129.623-23.527 194.094a210 210 0 0 0 3.099 9.465c.851 2.4 1.667 4.811 2.487 7.222C64.29 415.612 79.9 443.534 101 468l1.887 2.223C114.987 484.08 128.094 497.19 143 508l3.445 2.566C154.636 516.61 163.143 521.991 172 527l2.11 1.203c58.033 32.736 130.005 41.167 194.324 23.64a210 210 0 0 0 9.465-3.098c2.4-.851 4.811-1.667 7.222-2.487C415.612 535.71 443.534 520.1 468 499l2.223-1.887C484.08 485.013 497.19 471.906 508 457l2.566-3.445c6.043-8.19 11.427-16.697 16.434-25.555l1.219-2.143C535.434 413.042 540.913 399.78 546 386l1.038-2.713c2.505-6.645 4.397-13.315 6.024-20.224l.779-3.28c4.539-19.633 6.38-39.152 6.346-59.283l-.002-2.265c-.108-39.89-8.943-77.221-26.185-113.235l-1.144-2.4c-10.992-22.714-26.38-43.474-43.856-61.6l-2.014-2.096C477.54 109.122 468 100.005 457 92l-3.45-2.57C445.36 83.39 436.857 78.006 428 73l-2.143-1.219C413.042 64.566 399.78 59.087 386 54l-2.713-1.038c-6.645-2.505-13.315-4.397-20.224-6.025l-3.28-.778c-19.633-4.539-39.152-6.38-59.283-6.346l-2.265.002C258.345 39.923 221.014 48.758 185 66"/><path fill="#4d3591" d="M230 314h36c10.69 26.99 21.374 53.984 32 81 3.565-7.626 6.777-15.337 9.813-23.187q1.425-3.66 2.855-7.317l.773-1.978c3.322-8.488 6.707-16.951 10.092-25.414q1.092-2.727 2.181-5.455 1.537-3.845 3.075-7.688l.94-2.351c2.156-5.38 2.156-5.38 3.271-7.61h35v113h-25l-1-75-7.125 17.813L310 427h-23c-8.732-20.828-17.366-41.685-25.682-62.682-1.765-4.443-3.543-8.88-5.318-13.318l-1 76h-25z"/><path fill="#4d3491" d="m122 314 29.438-.125 9.243-.055 7.315-.015 3.786-.031c14.039-.003 27.206 3.165 37.78 13.039 6.945 7.645 9.784 16.103 9.649 26.25-.713 9.924-5.176 18.452-12.461 25.187-8.694 6.924-18.524 10.093-29.527 9.945l-2.183-.006c-2.66-.01-5.318-.038-7.977-.064L149 388v39h-27z"/><path fill="#4b3390" d="m384 314 30-.375 9.367-.166c17.471-.18 32.761.188 46.578 12.33 7.245 7.796 10.605 16.356 10.356 26.926C479.289 363.77 475.404 371.729 467 379c-8.64 6.392-17.476 9.505-28.191 9.293l-2.237-.01c-2.711-.015-5.423-.057-8.135-.096L410 388v39h-26z"/><path fill="#01bfe0" d="M209 202h80v20l-8 2c-5.685 3.061-8.95 6.853-11 13-.784 6.516.213 11.596 4 17 4.845 4.602 8.384 5.897 15 7v20h-80v-20l4.625-1.187c6.326-1.924 9.81-4.153 13.25-10 1.787-6.056 2.482-11.964-.625-17.688-3.566-4.953-5.973-7.44-12-8.875L209 222z"/><path fill="#f16223" d="M296 116c11.171 0 20.493 3.967 28.715 11.59 4.496 4.862 9.098 11.465 9.418 18.215L334 148h2l.188-2.375c2.241-10.002 7.636-17.68 16.062-23.312C360.284 117.438 365.481 116 375 116v79c-12.303 0-19.976-3.056-28.809-11.605-5.364-5.862-8.729-11.871-11.191-19.395l-.848 2.309c-4.744 12.218-10.817 20.47-22.925 25.945C305.575 194.476 302.365 195 296 195z"/><path fill="#070707" d="m209 116 29.5-.25 9.271-.11q3.661-.018 7.323-.03l3.802-.063c9.064-.003 15.673 1.477 22.65 7.726 5.344 6.349 8.434 13.753 7.907 22.063-1.442 8.479-5.206 15.64-12.078 20.91-7.133 4.508-15.337 5.058-23.566 4.95l-2.518-.01c-2.618-.01-5.236-.035-7.853-.061q-2.685-.016-5.37-.027c-4.356-.02-8.712-.06-13.068-.098v24h-16z"/><path fill="#fbfbfd" d="m410 334 13.375-.312 4.154-.138c7.946-.09 13.86.869 20.471 5.45 4.232 4.232 4.844 7.07 5.313 12.875-.065 4.36-1.486 6.763-4.313 10.125-5.308 5.029-10.516 6.261-17.71 6.195l-3.4-.015-4.265-.055L410 368z"/><path fill="#fdfcfd" d="m149 334 12.5-.187 3.893-.083c8.179-.06 15.13.478 21.482 6.207.831.726.831.726 1.68 1.465 2.544 2.813 3.386 5.085 3.82 8.848-.465 4.647-1.54 8.015-4.375 11.75-5.357 4.287-9.708 6.127-16.54 6.098l-3.552-.008-4.533-.027L149 368z"/><path fill="#543894" d="M307 202c9.006-1.606 18.767-2.758 27.113 1.64 6.499 4.591 12.055 10.127 17.496 15.895 2.4 2.542 4.89 4.962 7.424 7.368 8.75 8.378 16.882 16.17 17.357 28.926-.154 4.453-.57 8.791-1.39 13.171-6.111-5.05-11.668-10.555-17.246-16.184l-2.94-2.95q-5.41-5.434-10.812-10.875a8153 8153 0 0 0-9.167-9.212 2696 2696 0 0 1-4.247-4.279c-4.52-4.536-9.084-8.94-13.956-13.097-2.136-1.837-4.144-3.782-6.132-5.778l-2.031-2.023C307 203 307 203 307 202"/><path fill="#533693" d="M296 214a198 198 0 0 1 13.302 12.173l1.777 1.771q2.867 2.863 5.73 5.732l4.005 4.003q4.177 4.174 8.349 8.353 5.36 5.369 10.73 10.728 4.127 4.121 8.249 8.248l3.96 3.958q2.754 2.75 5.501 5.508l1.667 1.66C363 279.887 363 279.887 363 281c-8.7 1.632-18.015 2.674-26.058-1.64-6.47-4.614-12.028-10.146-17.476-15.895-2.408-2.54-4.907-4.96-7.447-7.368-16.939-16.188-16.939-16.188-17.413-28.926.155-4.461.618-8.78 1.394-13.171"/><path fill="#fefefe" d="M225 131c5.606-.069 11.21-.129 16.815-.165q2.859-.022 5.718-.061a971 971 0 0 1 8.229-.067l2.573-.047c4.73-.001 7.829.264 11.665 3.34 2.49 3.03 3.853 5.119 4.5 9-.753 4.52-2.965 7.364-6.056 10.657-3.816 2.096-7.523 1.712-11.803 1.636l-2.74-.013c-2.885-.017-5.768-.054-8.651-.093q-2.935-.022-5.871-.04c-4.794-.031-9.585-.09-14.379-.147z"/><path fill="#5f449a" d="M295 259c3.749 1.874 5.647 3.402 8.547 6.316l2.558 2.565 2.645 2.682 2.691 2.693C318 279.86 318 279.86 318 281h-23z"/><path fill="#553994" d="M353 202h22v22c-7.889-6.762-7.889-6.762-10.965-9.832l-1.982-1.979-1.99-2.001-2.073-2.061-3.724-3.732C353 203 353 203 353 202"/><path fill="#dad5e8" d="M492.5 314.375c4.459.796 5.908 1.933 8.5 5.625.688 3.5.688 3.5 0 7-2.875 3.217-4.84 4.74-9.062 5.688-4.306-1.008-5.622-3.01-7.938-6.688-.625-3.062-.625-3.062 0-6 2.608-3.635 4.07-4.834 8.5-5.625"/><path fill="#6b56a3" d="M492.5 314.375c4.459.796 5.908 1.933 8.5 5.625.688 3.5.688 3.5 0 7-2.875 3.217-4.84 4.74-9.062 5.688-4.306-1.008-5.622-3.01-7.938-6.688-.625-3.062-.625-3.062 0-6 2.608-3.635 4.07-4.834 8.5-5.625m-4.312 3.688c-1.858 3.03-1.56 5.471-1.188 8.937 1.044 2.045 1.044 2.045 3 3 2.821.423 4.34.387 6.813-1.062 1.857-3.032 1.558-5.472 1.187-8.938-1.044-2.045-1.044-2.045-3-3-2.821-.423-4.34-.387-6.812 1.063"/><path fill="#6a55a2" d="M490 319h5v4c.304 1.672.631 3.34 1 5h-6z"/><path fill="#535353" d="M380 276h11v5h-10z"/><path fill="#6f5ba5" d="m487 316 3 1-2 1v10h-3c-1.405-2.81-1.249-4.888-1-8 1.5-2.375 1.5-2.375 3-4"/><path fill="#f0eef5" d="M491 317c2.938.375 2.938.375 6 1 1.478 2.957 1.06 5.742 1 9l-2 1c-2.125-4.625-2.125-4.625-1-8z"/><path fill="#5a4399" d="M489 315c3.492-.201 6.2-.35 9.438 1.063 2.328 2.887 1.833 5.353 1.562 8.937-1.206-2.332-2.165-4.496-3-7l-8-1z"/></svg>