<?xml version="1.0" encoding="UTF-8"?>
<svg xmlns="http://www.w3.org/2000/svg" xmlns:xlink="http://www.w3.org/1999/xlink" width="451.68pt" height="263.03pt" viewBox="0 0 451.68 263.03" version="1.1">
<defs>
<clipPath id="clip1">
  <path d="M 0 0 L 451.679688 0 L 451.679688 263.03125 L 0 263.03125 Z M 0 0 "/>
</clipPath>
</defs>
<g id="surface1">
<g clip-path="url(#clip1)" clip-rule="nonzero">
<path style=" stroke:none;fill-rule:nonzero;fill:rgb(13.699341%,12.199402%,12.5%);fill-opacity:1;" d="M 196.738281 78.457031 L 196.738281 36.988281 L 208.476563 36.988281 C 213.453125 36.988281 217.144531 38.742188 219.558594 42.25 C 221.964844 45.757813 223.171875 50.65625 223.171875 56.949219 C 223.171875 63.96875 221.847656 69.300781 219.199219 72.964844 C 216.554688 76.625 213.214844 78.457031 209.1875 78.457031 Z M 309.191406 233.652344 C 268.601563 214.335938 219.835938 187.253906 187.136719 136.328125 L 196.738281 136.328125 L 196.738281 89.597656 L 209.660156 89.597656 C 217.007813 89.597656 222.914063 86.789063 227.378906 81.164063 C 231.84375 75.546875 234.074219 67.683594 234.074219 57.566406 C 234.074219 50.140625 233.128906 44.210938 231.230469 39.773438 C 229.335938 35.339844 227.003906 32.140625 224.238281 30.179688 C 221.46875 28.222656 218.785156 27.007813 216.175781 26.542969 C 213.570313 26.078125 210.804688 25.847656 207.882813 25.847656 L 186.308594 25.847656 L 186.308594 135.011719 C 167.078125 104.566406 153.566406 65.6875 150.851563 15.011719 L 433.730469 15.011719 C 433.730469 15.011719 463.339844 162.867188 309.191406 233.652344 Z M 123.917969 -0.00390625 C 121.574219 30.410156 130.644531 89.601563 157.664063 133.46875 C 213.242188 223.6875 279.457031 237.546875 278.863281 241.582031 C 277.867188 248.359375 189.648438 226.835938 133.128906 124.039063 C 96.910156 58.171875 105.234375 -0.00390625 105.234375 -0.00390625 L 63.441406 -0.00390625 C 59.863281 32.347656 71.144531 87.351563 94.285156 133.46875 C 139.503906 223.578125 229.636719 243.753906 226.28125 247.113281 C 223.269531 250.121094 129.480469 234.898438 73.167969 137.246094 C 35.617188 72.128906 40.085938 -0.00390625 40.085938 -0.00390625 L 0 -0.00390625 C -0.0078125 57.535156 13.027344 121.4375 46.933594 167.960938 C 90.527344 227.78125 162.894531 263.03125 225.835938 263.03125 C 328.308594 263.03125 381.59375 213.394531 416.144531 163.484375 C 450.085938 114.460938 451.679688 47.539063 451.675781 -0.00390625 L 123.917969 -0.00390625 "/>
</g>
<path style=" stroke:none;fill-rule:nonzero;fill:rgb(13.699341%,12.199402%,12.5%);fill-opacity:1;" d="M 278.285156 113.429688 L 278.050781 113.429688 L 261.101563 25.847656 L 243.558594 25.847656 L 243.558594 136.328125 L 253.988281 136.328125 L 253.988281 39.773438 L 254.226563 39.773438 L 272.953125 136.328125 L 283.382813 136.328125 L 302.109375 39.773438 L 302.347656 39.773438 L 302.347656 136.328125 L 312.777344 136.328125 L 312.777344 25.847656 L 295.234375 25.847656 L 278.285156 113.429688 "/>
<path style=" stroke:none;fill-rule:nonzero;fill:rgb(13.699341%,12.199402%,12.5%);fill-opacity:1;" d="M 359.65625 72.964844 C 357.011719 76.625 353.671875 78.457031 349.640625 78.457031 L 337.195313 78.457031 L 337.195313 36.988281 L 348.929688 36.988281 C 353.90625 36.988281 357.601563 38.742188 360.011719 42.25 C 362.421875 45.757813 363.628906 50.65625 363.628906 56.949219 C 363.628906 63.96875 362.300781 69.300781 359.65625 72.964844 Z M 367.835938 81.164063 C 372.296875 75.546875 374.53125 67.683594 374.53125 57.566406 C 374.53125 50.140625 373.582031 44.210938 371.6875 39.773438 C 369.792969 35.339844 367.457031 32.140625 364.691406 30.179688 C 361.925781 28.222656 359.242188 27.007813 356.632813 26.542969 C 354.023438 26.078125 351.257813 25.847656 348.339844 25.847656 L 326.765625 25.847656 L 326.765625 136.328125 L 337.195313 136.328125 L 337.195313 89.597656 L 350.113281 89.597656 C 357.464844 89.597656 363.371094 86.789063 367.835938 81.164063 "/>
<path style=" stroke:none;fill-rule:nonzero;fill:rgb(13.699341%,12.199402%,12.5%);fill-opacity:1;" d="M 410.347656 124.703125 C 406.132813 129.394531 399.746094 132.195313 393.269531 132.195313 C 392.441406 132.195313 391.613281 132.148438 390.800781 132.058594 C 384.828125 131.394531 378.820313 127.722656 375.121094 122.46875 C 372.578125 118.855469 369.949219 112.867188 371.859375 104.820313 C 374.25 94.75 382.621094 88.058594 393.183594 87.765625 C 393.398438 87.761719 393.613281 87.757813 393.824219 87.757813 C 405.121094 87.757813 414.515625 96.003906 415.683594 106.933594 C 416.613281 115.683594 413.296875 121.425781 410.347656 124.703125 Z M 395.363281 81.84375 L 391.371094 81.851563 C 376.410156 84.078125 367.699219 92.789063 365.464844 107.839844 L 365.472656 111.828125 C 367.574219 126.90625 376.289063 135.699219 391.464844 137.980469 L 395.652344 137.980469 L 395.703125 137.972656 C 410.800781 135.683594 419.511719 126.886719 421.601563 111.738281 L 421.597656 107.742188 C 419.3125 92.640625 410.519531 83.929688 395.363281 81.84375 "/>
<path style=" stroke:none;fill-rule:nonzero;fill:rgb(13.699341%,12.199402%,12.5%);fill-opacity:1;" d="M 397.992188 106.148438 C 396.570313 107.789063 393.003906 107.996094 390.054688 107.996094 C 389.042969 107.996094 388.007813 107.96875 386.988281 107.941406 L 386.988281 100.207031 C 387.785156 100.214844 388.597656 100.199219 389.402344 100.1875 C 390.0625 100.179688 390.71875 100.164063 391.363281 100.164063 C 395.5625 100.164063 398.242188 100.6875 398.621094 103.304688 C 398.800781 104.523438 398.589844 105.453125 397.992188 106.148438 Z M 397.828125 112.152344 C 400.066406 111.644531 401.949219 110.472656 403.226563 108.769531 C 404.703125 106.789063 405.269531 104.1875 404.773438 101.625 C 403.574219 95.445313 396.777344 94.929688 390.496094 94.929688 C 389.308594 94.929688 388.097656 94.953125 386.890625 94.976563 C 385.140625 95.011719 383.390625 95.042969 381.726563 95.003906 L 381.066406 94.988281 L 381.066406 125.59375 L 381.757813 125.550781 C 382.484375 125.496094 383.386719 125.535156 384.207031 125.5625 C 385.171875 125.601563 386.019531 125.621094 386.464844 125.539063 L 386.988281 125.441406 L 386.988281 113.0625 C 393.273438 112.621094 395.210938 116.503906 397.253906 120.628906 C 398.050781 122.238281 398.871094 123.902344 399.976563 125.304688 L 400.148438 125.527344 L 400.433594 125.550781 C 401.125 125.597656 401.898438 125.574219 402.675781 125.546875 C 403.109375 125.53125 403.542969 125.515625 403.960938 125.515625 C 404.507813 125.515625 405.300781 125.539063 405.859375 125.75 L 407.433594 126.34375 L 406.664063 124.847656 C 403.683594 119.054688 400.714844 114.792969 397.828125 112.152344 "/>
</g>
</svg>
