<?xml version="1.0" encoding="UTF-8"?>
<svg version="1.1" xmlns="http://www.w3.org/2000/svg" width="600" height="600">
<path d="M0 0 C1.10788879 0.00215515 2.21577759 0.0043103 3.35723877 0.00653076 C19.25459578 0.05620013 34.77174803 0.37618543 50.4375 3.3125 C52.01192871 3.58658691 52.01192871 3.58658691 53.61816406 3.86621094 C78.80041993 8.32564502 104.32499672 15.98995146 127.33886719 27.28369141 C129.64496161 28.41420349 131.96661029 29.50898316 134.2890625 30.60546875 C159.24663556 42.55949149 181.67618623 58.57657497 202.09765625 77.19140625 C204.22554815 79.12036335 206.38470859 81.00286353 208.5625 82.875 C215.42061758 88.86377873 221.48550005 95.43976634 227.4375 102.3125 C227.97109131 102.92343506 228.50468262 103.53437012 229.05444336 104.16381836 C243.60487662 120.92731424 256.32578295 139.53391301 266.4375 159.3125 C266.89576172 160.20453125 267.35402344 161.0965625 267.82617188 162.015625 C275.63362921 177.36656841 282.1100656 192.93678626 287.4375 209.3125 C287.72850586 210.20356445 288.01951172 211.09462891 288.31933594 212.01269531 C297.48953922 240.64662807 300.85464394 269.94515362 300.75 299.875 C300.74784485 300.98288879 300.7456897 302.09077759 300.74346924 303.23223877 C300.69379987 319.12959578 300.37381457 334.64674803 297.4375 350.3125 C297.25477539 351.36211914 297.07205078 352.41173828 296.88378906 353.49316406 C292.42435498 378.67541993 284.76004854 404.19999672 273.46630859 427.21386719 C272.33579651 429.51996161 271.24101684 431.84161029 270.14453125 434.1640625 C258.19050851 459.12163556 242.17342503 481.55118623 223.55859375 501.97265625 C221.62963665 504.10054815 219.74713647 506.25970859 217.875 508.4375 C211.88622127 515.29561758 205.31023366 521.36050005 198.4375 527.3125 C197.82656494 527.84609131 197.21562988 528.37968262 196.58618164 528.92944336 C179.82268576 543.47987662 161.21608699 556.20078295 141.4375 566.3125 C140.54546875 566.77076172 139.6534375 567.22902344 138.734375 567.70117188 C123.38343159 575.50862921 107.81321374 581.9850656 91.4375 587.3125 C90.10090332 587.74900879 90.10090332 587.74900879 88.73730469 588.19433594 C60.10337193 597.36453922 30.80484638 600.72964394 0.875 600.625 C-0.78683319 600.62176727 -0.78683319 600.62176727 -2.48223877 600.61846924 C-18.37959578 600.56879987 -33.89674803 600.24881457 -49.5625 597.3125 C-50.61211914 597.12977539 -51.66173828 596.94705078 -52.74316406 596.75878906 C-77.92541993 592.29935498 -103.44999672 584.63504854 -126.46386719 573.34130859 C-128.76996161 572.21079651 -131.09161029 571.11601684 -133.4140625 570.01953125 C-158.37163556 558.06550851 -180.80118623 542.04842503 -201.22265625 523.43359375 C-203.35054815 521.50463665 -205.50970859 519.62213647 -207.6875 517.75 C-214.54561758 511.76122127 -220.61050005 505.18523366 -226.5625 498.3125 C-227.09609131 497.70156494 -227.62968262 497.09062988 -228.17944336 496.46118164 C-242.72987662 479.69768576 -255.45078295 461.09108699 -265.5625 441.3125 C-266.02076172 440.42046875 -266.47902344 439.5284375 -266.95117188 438.609375 C-274.75862921 423.25843159 -281.2350656 407.68821374 -286.5625 391.3125 C-286.99900879 389.97590332 -286.99900879 389.97590332 -287.44433594 388.61230469 C-296.61453922 359.97837193 -299.97964394 330.67984638 -299.875 300.75 C-299.87284485 299.64211121 -299.8706897 298.53422241 -299.86846924 297.39276123 C-299.81879987 281.49540422 -299.49881457 265.97825197 -296.5625 250.3125 C-296.37977539 249.26288086 -296.19705078 248.21326172 -296.00878906 247.13183594 C-291.54935498 221.94958007 -283.88504854 196.42500328 -272.59130859 173.41113281 C-271.46079651 171.10503839 -270.36601684 168.78338971 -269.26953125 166.4609375 C-257.31550851 141.50336444 -241.29842503 119.07381377 -222.68359375 98.65234375 C-220.75463665 96.52445185 -218.87213647 94.36529141 -217 92.1875 C-211.01122127 85.32938242 -204.43523366 79.26449995 -197.5625 73.3125 C-196.95156494 72.77890869 -196.34062988 72.24531738 -195.71118164 71.69555664 C-178.94768576 57.14512338 -160.34108699 44.42421705 -140.5625 34.3125 C-139.67046875 33.85423828 -138.7784375 33.39597656 -137.859375 32.92382812 C-122.50843159 25.11637079 -106.93821374 18.6399344 -90.5625 13.3125 C-89.67143555 13.02149414 -88.78037109 12.73048828 -87.86230469 12.43066406 C-59.22837193 3.26046078 -29.92984638 -0.10464394 0 0 Z " fill="#FEFEFE" transform="translate(299.5625,-0.31250000000000006)"/>
<path d="M0 0 C1.10788879 0.00215515 2.21577759 0.0043103 3.35723877 0.00653076 C19.25459578 0.05620013 34.77174803 0.37618543 50.4375 3.3125 C52.01192871 3.58658691 52.01192871 3.58658691 53.61816406 3.86621094 C78.80041993 8.32564502 104.32499672 15.98995146 127.33886719 27.28369141 C129.64496161 28.41420349 131.96661029 29.50898316 134.2890625 30.60546875 C159.24663556 42.55949149 181.67618623 58.57657497 202.09765625 77.19140625 C204.22554815 79.12036335 206.38470859 81.00286353 208.5625 82.875 C215.42061758 88.86377873 221.48550005 95.43976634 227.4375 102.3125 C227.97109131 102.92343506 228.50468262 103.53437012 229.05444336 104.16381836 C243.60487662 120.92731424 256.32578295 139.53391301 266.4375 159.3125 C266.89576172 160.20453125 267.35402344 161.0965625 267.82617188 162.015625 C275.63362921 177.36656841 282.1100656 192.93678626 287.4375 209.3125 C287.72850586 210.20356445 288.01951172 211.09462891 288.31933594 212.01269531 C297.48953922 240.64662807 300.85464394 269.94515362 300.75 299.875 C300.74784485 300.98288879 300.7456897 302.09077759 300.74346924 303.23223877 C300.69379987 319.12959578 300.37381457 334.64674803 297.4375 350.3125 C297.25477539 351.36211914 297.07205078 352.41173828 296.88378906 353.49316406 C292.42435498 378.67541993 284.76004854 404.19999672 273.46630859 427.21386719 C272.33579651 429.51996161 271.24101684 431.84161029 270.14453125 434.1640625 C258.19050851 459.12163556 242.17342503 481.55118623 223.55859375 501.97265625 C221.62963665 504.10054815 219.74713647 506.25970859 217.875 508.4375 C211.88622127 515.29561758 205.31023366 521.36050005 198.4375 527.3125 C197.82656494 527.84609131 197.21562988 528.37968262 196.58618164 528.92944336 C179.82268576 543.47987662 161.21608699 556.20078295 141.4375 566.3125 C140.54546875 566.77076172 139.6534375 567.22902344 138.734375 567.70117188 C123.38343159 575.50862921 107.81321374 581.9850656 91.4375 587.3125 C90.10090332 587.74900879 90.10090332 587.74900879 88.73730469 588.19433594 C60.10337193 597.36453922 30.80484638 600.72964394 0.875 600.625 C-0.78683319 600.62176727 -0.78683319 600.62176727 -2.48223877 600.61846924 C-18.37959578 600.56879987 -33.89674803 600.24881457 -49.5625 597.3125 C-50.61211914 597.12977539 -51.66173828 596.94705078 -52.74316406 596.75878906 C-77.92541993 592.29935498 -103.44999672 584.63504854 -126.46386719 573.34130859 C-128.76996161 572.21079651 -131.09161029 571.11601684 -133.4140625 570.01953125 C-158.37163556 558.06550851 -180.80118623 542.04842503 -201.22265625 523.43359375 C-203.35054815 521.50463665 -205.50970859 519.62213647 -207.6875 517.75 C-214.54561758 511.76122127 -220.61050005 505.18523366 -226.5625 498.3125 C-227.09609131 497.70156494 -227.62968262 497.09062988 -228.17944336 496.46118164 C-242.72987662 479.69768576 -255.45078295 461.09108699 -265.5625 441.3125 C-266.02076172 440.42046875 -266.47902344 439.5284375 -266.95117188 438.609375 C-274.75862921 423.25843159 -281.2350656 407.68821374 -286.5625 391.3125 C-286.99900879 389.97590332 -286.99900879 389.97590332 -287.44433594 388.61230469 C-296.61453922 359.97837193 -299.97964394 330.67984638 -299.875 300.75 C-299.87284485 299.64211121 -299.8706897 298.53422241 -299.86846924 297.39276123 C-299.81879987 281.49540422 -299.49881457 265.97825197 -296.5625 250.3125 C-296.37977539 249.26288086 -296.19705078 248.21326172 -296.00878906 247.13183594 C-291.54935498 221.94958007 -283.88504854 196.42500328 -272.59130859 173.41113281 C-271.46079651 171.10503839 -270.36601684 168.78338971 -269.26953125 166.4609375 C-257.31550851 141.50336444 -241.29842503 119.07381377 -222.68359375 98.65234375 C-220.75463665 96.52445185 -218.87213647 94.36529141 -217 92.1875 C-211.01122127 85.32938242 -204.43523366 79.26449995 -197.5625 73.3125 C-196.95156494 72.77890869 -196.34062988 72.24531738 -195.71118164 71.69555664 C-178.94768576 57.14512338 -160.34108699 44.42421705 -140.5625 34.3125 C-139.67046875 33.85423828 -138.7784375 33.39597656 -137.859375 32.92382812 C-122.50843159 25.11637079 -106.93821374 18.6399344 -90.5625 13.3125 C-89.67143555 13.02149414 -88.78037109 12.73048828 -87.86230469 12.43066406 C-59.22837193 3.26046078 -29.92984638 -0.10464394 0 0 Z M-114.5625 66.3125 C-115.75045166 66.87855957 -115.75045166 66.87855957 -116.96240234 67.45605469 C-139.67631049 78.44843972 -160.43628933 93.8363536 -178.5625 111.3125 C-179.25424316 111.97701172 -179.94598633 112.64152344 -180.65869141 113.32617188 C-190.44061663 122.77311409 -199.55707283 132.31382252 -207.5625 143.3125 C-208.41899066 144.46244831 -209.27576433 145.61218589 -210.1328125 146.76171875 C-216.17269951 154.95090904 -221.5756594 163.44543211 -226.5625 172.3125 C-226.9970752 173.0844873 -227.43165039 173.85647461 -227.87939453 174.65185547 C-260.30764732 232.90751243 -268.97411842 304.27504559 -251.40625 368.74609375 C-250.44174275 371.92961938 -249.42147933 375.07719884 -248.30761719 378.21142578 C-247.45645267 380.61153122 -246.64008023 383.0225904 -245.8203125 385.43359375 C-235.2722387 415.92475396 -219.66200013 443.84647481 -198.5625 468.3125 C-197.93988281 469.04597656 -197.31726563 469.77945312 -196.67578125 470.53515625 C-184.57639091 484.39359352 -171.46873067 497.50220427 -156.5625 508.3125 C-155.41365255 509.16741814 -154.26522016 510.02289429 -153.1171875 510.87890625 C-144.92627611 516.92162656 -136.41944675 522.30326064 -127.5625 527.3125 C-126.86592285 527.70937012 -126.1693457 528.10624023 -125.45166016 528.51513672 C-67.41946697 561.25157866 4.55279223 569.68249613 68.87109375 552.15625 C72.05461938 551.19174275 75.20219884 550.17147933 78.33642578 549.05761719 C80.73653122 548.20645267 83.1475904 547.39008023 85.55859375 546.5703125 C116.04975396 536.0222387 143.97147481 520.41200013 168.4375 499.3125 C169.17097656 498.68988281 169.90445312 498.06726563 170.66015625 497.42578125 C184.51859352 485.32639091 197.62720427 472.21873067 208.4375 457.3125 C209.29241814 456.16365255 210.14789429 455.01522016 211.00390625 453.8671875 C217.04640768 445.67657279 222.43027903 437.17029081 227.4375 428.3125 C227.8396875 427.60528809 228.241875 426.89807617 228.65625 426.16943359 C235.87123223 413.35438507 241.35079932 400.09337608 246.4375 386.3125 C246.77998779 385.41716553 247.12247559 384.52183105 247.4753418 383.59936523 C249.98032121 376.95489693 251.87293423 370.28417381 253.5 363.375 C253.88514771 361.75126465 253.88514771 361.75126465 254.27807617 360.09472656 C258.81712086 340.46252947 260.65781577 320.94399572 260.625 300.8125 C260.62406342 300.06516602 260.62312683 299.31783203 260.62216187 298.54785156 C260.51424811 258.65697467 251.67947846 221.32609049 234.4375 185.3125 C233.87144043 184.12454834 233.87144043 184.12454834 233.29394531 182.91259766 C222.30156028 160.19868951 206.9136464 139.43871067 189.4375 121.3125 C188.77298828 120.62075684 188.10847656 119.92901367 187.42382812 119.21630859 C177.97688591 109.43438337 168.43617748 100.31792717 157.4375 92.3125 C156.28755169 91.45600934 155.13781411 90.59923567 153.98828125 89.7421875 C145.79815742 83.70215791 137.29370382 78.31882386 128.4375 73.3125 C127.73028809 72.9103125 127.02307617 72.508125 126.29443359 72.09375 C113.47938507 64.87876777 100.21837608 59.39920068 86.4375 54.3125 C85.54216553 53.97001221 84.64683105 53.62752441 83.72436523 53.2746582 C77.07989693 50.76967879 70.40917381 48.87706577 63.5 47.25 C62.41750977 46.99323486 61.33501953 46.73646973 60.21972656 46.47192383 C40.58752947 41.93287914 21.06899572 40.09218423 0.9375 40.125 C-0.18350098 40.12640488 -0.18350098 40.12640488 -1.32714844 40.12783813 C-41.21802533 40.23575189 -78.54890951 49.07052154 -114.5625 66.3125 Z " fill="#4B3290" transform="translate(299.5625,-0.31250000000000006)"/>
<path d="M0 0 C11.88 0 23.76 0 36 0 C46.69019144 26.99075789 57.3744158 53.98373225 68 81 C71.56503357 73.37382177 74.77733667 65.66294355 77.8125 57.8125 C78.76314957 55.37323114 79.71472556 52.93434803 80.66796875 50.49609375 C80.92300171 49.84332458 81.17803467 49.19055542 81.4407959 48.51800537 C84.7626532 40.02990351 88.14788595 31.56700512 91.53329468 23.10409546 C92.26060993 21.28591914 92.98751888 19.46758024 93.71401978 17.64907837 C94.73807023 15.08597797 95.76334081 12.52336948 96.7890625 9.9609375 C97.09898636 9.18512833 97.40891022 8.40931915 97.72822571 7.61000061 C99.88477961 2.23044078 99.88477961 2.23044078 101 0 C112.55 0 124.1 0 136 0 C136 37.29 136 74.58 136 113 C127.75 113 119.5 113 111 113 C110.67 88.25 110.34 63.5 110 38 C107.64875 43.878125 105.2975 49.75625 102.875 55.8125 C95.25 74.875 87.625 93.9375 80 113 C72.41 113 64.82 113 57 113 C48.26809359 92.17225601 39.63437728 71.31528079 31.31762695 50.31787109 C29.55334431 45.87529167 27.77527871 41.43819678 26 37 C25.67 62.08 25.34 87.16 25 113 C16.75 113 8.5 113 0 113 C0 75.71 0 38.42 0 0 Z " fill="#4D3591" transform="translate(230,314)"/>
<path d="M0 0 C9.714375 -0.04125 19.42875 -0.0825 29.4375 -0.125 C32.48798584 -0.14320801 35.53847168 -0.16141602 38.68139648 -0.18017578 C41.11962712 -0.18602115 43.55785972 -0.19111661 45.99609375 -0.1953125 C47.24555786 -0.20554443 48.49502197 -0.21577637 49.78234863 -0.22631836 C63.82080279 -0.22910626 76.98764239 2.93862727 87.5625 12.8125 C94.50734468 20.45779039 97.34586936 28.91562435 97.2109375 39.0625 C96.49827529 48.9869811 92.03467862 57.51510844 84.75 64.25 C76.05607081 71.17436838 66.22560327 74.34284713 55.22265625 74.1953125 C54.50235229 74.19329834 53.78204834 74.19128418 53.03991699 74.18920898 C50.38071207 74.17884171 47.7215988 74.15092005 45.0625 74.125 C39.101875 74.08375 33.14125 74.0425 27 74 C27 86.87 27 99.74 27 113 C18.09 113 9.18 113 0 113 C0 75.71 0 38.42 0 0 Z " fill="#4D3491" transform="translate(122,314)"/>
<path d="M0 0 C14.85 -0.185625 14.85 -0.185625 30 -0.375 C33.09117187 -0.42962402 36.18234375 -0.48424805 39.3671875 -0.54052734 C56.83815795 -0.7209612 72.12841248 -0.35306176 85.9453125 11.7890625 C93.19004327 19.58472337 96.5496464 28.14462402 96.30078125 38.71484375 C95.28853083 49.77072167 91.40365957 57.72912213 83 65 C74.35947393 71.39236412 65.5242647 74.50533133 54.80859375 74.29296875 C53.70167175 74.28843689 53.70167175 74.28843689 52.5723877 74.28381348 C49.86061268 74.26831921 47.14903971 74.22643811 44.4375 74.1875 C38.353125 74.125625 32.26875 74.06375 26 74 C26 86.87 26 99.74 26 113 C17.42 113 8.84 113 0 113 C0 75.71 0 38.42 0 0 Z " fill="#4B3390" transform="translate(384,314)"/>
<path d="M0 0 C26.4 0 52.8 0 80 0 C80 6.6 80 13.2 80 20 C77.36 20.66 74.72 21.32 72 22 C66.31467865 25.06132688 63.04908174 28.85275478 61 35 C60.21603661 41.51589241 61.21326671 46.59563308 65 52 C69.84472361 56.60248743 73.38441357 57.89740226 80 59 C80 65.6 80 72.2 80 79 C53.6 79 27.2 79 0 79 C0 72.4 0 65.8 0 59 C2.289375 58.4121875 2.289375 58.4121875 4.625 57.8125 C10.95102744 55.88874342 14.43516587 53.66021803 17.875 47.8125 C19.66178258 41.75729236 20.35749758 35.8486912 17.25 30.125 C13.68402986 25.1722637 11.27736534 22.68508699 5.25 21.25 C3.5175 20.8375 1.785 20.425 0 20 C0 13.4 0 6.8 0 0 Z " fill="#01BFE0" transform="translate(209,202)"/>
<path d="M0 0 C11.17147372 0 20.49317843 3.96747978 28.71484375 11.58984375 C33.21083824 16.4519243 37.81321194 23.05547569 38.1328125 29.8046875 C38.08898437 30.52914062 38.04515625 31.25359375 38 32 C38.66 32 39.32 32 40 32 C40.061875 31.21625 40.12375 30.4325 40.1875 29.625 C42.42939135 19.62271554 47.82380887 11.94560828 56.25 6.3125 C64.28399265 1.438185 69.48123371 0 79 0 C79 26.07 79 52.14 79 79 C66.69721263 79 59.02449048 75.94404937 50.19140625 67.39453125 C44.82672012 61.53258366 41.46233069 55.52378821 39 48 C38.72027344 48.76183594 38.44054687 49.52367187 38.15234375 50.30859375 C33.40831052 62.52714879 27.3345409 70.77973574 15.2265625 76.25390625 C9.57463233 78.47596647 6.36456979 79 0 79 C0 52.93 0 26.86 0 0 Z " fill="#F16223" transform="translate(296,116)"/>
<path d="M0 0 C9.735 -0.0825 19.47 -0.165 29.5 -0.25 C32.55958984 -0.28641602 35.61917969 -0.32283203 38.77148438 -0.36035156 C41.21223246 -0.37204036 43.65298836 -0.38223173 46.09375 -0.390625 C47.34833008 -0.41108887 48.60291016 -0.43155273 49.89550781 -0.45263672 C58.95998749 -0.45623659 65.56884474 1.02388293 72.546875 7.2734375 C77.88968614 13.62161633 80.97999675 21.02573302 80.453125 29.3359375 C79.0109379 37.81500304 75.2467647 44.97663957 68.375 50.24609375 C61.2417759 54.75389509 53.0384544 55.30356748 44.80859375 55.1953125 C43.97787857 55.1924826 43.14716339 55.18965271 42.29127502 55.18673706 C39.67319495 55.17566291 37.05547429 55.1505836 34.4375 55.125 C32.64779145 55.11495365 30.85807746 55.10583072 29.06835938 55.09765625 C24.71199427 55.07747855 20.35639298 55.03830731 16 55 C16 62.92 16 70.84 16 79 C10.72 79 5.44 79 0 79 C0 52.93 0 26.86 0 0 Z " fill="#070707" transform="translate(209,116)"/>
<path d="M0 0 C4.41375 -0.103125 8.8275 -0.20625 13.375 -0.3125 C15.43113525 -0.38078003 15.43113525 -0.38078003 17.52880859 -0.45043945 C25.47454639 -0.53967213 31.3889455 0.41866258 38 5 C42.23186551 9.23186551 42.84442665 12.07089042 43.3125 17.875 C43.24767391 22.23455451 41.82676897 24.6384369 39 28 C33.69204236 33.02859145 28.48425966 34.26132348 21.2890625 34.1953125 C19.60611084 34.18781982 19.60611084 34.18781982 17.88916016 34.18017578 C15.77840088 34.15286377 15.77840088 34.15286377 13.625 34.125 C9.12875 34.08375 4.6325 34.0425 0 34 C0 22.78 0 11.56 0 0 Z " fill="#FBFBFD" transform="translate(410,334)"/>
<path d="M0 0 C6.1875 -0.0928125 6.1875 -0.0928125 12.5 -0.1875 C13.78455078 -0.21481201 15.06910156 -0.24212402 16.39257812 -0.27026367 C24.57178741 -0.32943188 31.52207785 0.20771137 37.875 5.9375 C38.70644531 6.66259766 38.70644531 6.66259766 39.5546875 7.40234375 C42.09918898 10.21504944 42.94086082 12.48746043 43.375 16.25 C42.91028983 20.89710166 41.83477423 24.26467595 39 28 C33.6434253 32.28737698 29.29210163 34.12735696 22.4609375 34.09765625 C21.28837402 34.09515869 20.11581055 34.09266113 18.90771484 34.09008789 C16.664021 34.07643188 16.664021 34.07643188 14.375 34.0625 C9.63125 34.041875 4.8875 34.02125 0 34 C0 22.78 0 11.56 0 0 Z " fill="#FDFCFD" transform="translate(149,334)"/>
<path d="M0 0 C9.0059539 -1.60568535 18.76731656 -2.75762417 27.11279297 1.64044189 C33.61200037 6.2313223 39.16804712 11.76696147 44.609375 17.53540039 C47.00809079 20.07681916 49.49885577 22.49685123 52.03251648 24.90276527 C60.78223546 33.28113498 68.91521523 41.07348617 69.38977051 53.8290863 C69.23567372 58.2817945 68.81915015 62.62019782 68 67 C61.88899833 61.94914991 56.3321553 56.44480206 50.75390625 50.81640625 C49.77446182 49.83254422 48.79471454 48.84898361 47.81468201 47.8657074 C44.20669717 44.24447047 40.60420932 40.61778133 37.00158691 36.99121094 C33.94828232 33.91803149 30.89283818 30.84700847 27.8346386 27.77869987 C26.41692443 26.35459579 25.00231019 24.92740781 23.58778381 23.50013733 C19.06859281 18.96393905 14.5035177 14.5607257 9.63230896 10.40278625 C7.49550532 8.56644348 5.48780094 6.62068904 3.5 4.625 C2.8296875 3.95726562 2.159375 3.28953125 1.46875 2.6015625 C0 1 0 1 0 0 Z " fill="#543894" transform="translate(307,202)"/>
<path d="M0 0 C4.63389134 3.87600736 9.03956561 7.89406825 13.30249023 12.1730957 C13.88872665 12.7575798 14.47496307 13.3420639 15.07896423 13.94425964 C16.99134219 15.85228103 18.90009239 17.76388291 20.80859375 19.67578125 C22.1436579 21.01017113 23.47887041 22.34441258 24.81422424 23.67851257 C27.5987239 26.46154415 30.38142193 29.24636122 33.1628418 32.0324707 C36.73630698 35.61166604 40.31428766 39.18630861 43.89359951 42.75965595 C46.64477282 45.50722796 49.39357515 48.257162 52.14164925 51.00783348 C53.46108571 52.32793869 54.78126999 53.64729689 56.10220146 54.96590614 C57.93831422 56.79949587 59.77121918 58.63623143 61.60327148 60.47387695 C62.15331848 61.02189972 62.70336548 61.56992249 63.27008057 62.134552 C67 65.88573081 67 65.88573081 67 67 C58.30048523 68.63202235 48.98498932 69.67390899 40.94171143 65.35955811 C34.47154986 60.74600642 28.91444893 55.21410291 23.46606445 49.46459961 C21.0577896 46.9250403 18.55923568 44.50414949 16.01929665 42.09723473 C-0.91984809 25.9092503 -0.91984809 25.9092503 -1.39430237 13.1709137 C-1.23902601 8.70983904 -0.77599745 4.39175317 0 0 Z " fill="#533693" transform="translate(296,214)"/>
<path d="M0 0 C5.60552543 -0.06895179 11.2095736 -0.12866077 16.81518555 -0.16479492 C18.72116081 -0.17986128 20.62710152 -0.20031824 22.53295898 -0.22631836 C25.27596576 -0.26279642 28.01851328 -0.27974792 30.76171875 -0.29296875 C32.03543587 -0.31619453 32.03543587 -0.31619453 33.33488464 -0.33988953 C38.06519922 -0.34122859 41.16354357 -0.07614299 45 3 C47.49072981 6.02926599 48.85317422 8.11904534 49.5 12 C48.74659889 16.52040668 46.53515027 19.36438556 43.44433594 22.6574707 C39.62845353 24.75330943 35.92096007 24.36861086 31.640625 24.29296875 C30.73624695 24.28872391 29.8318689 24.28447906 28.90008545 24.28010559 C26.01641861 24.26333574 23.133455 24.22568669 20.25 24.1875 C18.29297886 24.17245097 16.33594674 24.15876295 14.37890625 24.14648438 C9.58544973 24.11599165 4.79351042 24.0572676 0 24 C0 16.08 0 8.16 0 0 Z " fill="#FEFEFE" transform="translate(225,131)"/>
<path d="M0 0 C3.7486084 1.8743042 5.64741016 3.40157003 8.546875 6.31640625 C9.39121094 7.16267578 10.23554688 8.00894531 11.10546875 8.88085938 C11.97816406 9.76580078 12.85085938 10.65074219 13.75 11.5625 C15.08224609 12.89571289 15.08224609 12.89571289 16.44140625 14.25585938 C23 20.85978903 23 20.85978903 23 22 C15.41 22 7.82 22 0 22 C0 14.74 0 7.48 0 0 Z " fill="#5F449A" transform="translate(295,259)"/>
<path d="M0 0 C7.26 0 14.52 0 22 0 C22 7.26 22 14.52 22 22 C14.11135642 15.23830551 14.11135642 15.23830551 11.03515625 12.16796875 C10.38095703 11.51505859 9.72675781 10.86214844 9.05273438 10.18945312 C8.39595703 9.52880859 7.73917969 8.86816406 7.0625 8.1875 C6.37865234 7.50751953 5.69480469 6.82753906 4.99023438 6.12695312 C4.34505859 5.48048828 3.69988281 4.83402344 3.03515625 4.16796875 C2.4512915 3.58297607 1.86742676 2.9979834 1.26586914 2.39526367 C0 1 0 1 0 0 Z " fill="#553994" transform="translate(353,202)"/>
<path d="M0 0 C4.45850936 0.79616239 5.90783917 1.93313458 8.5 5.625 C9.1875 9.125 9.1875 9.125 8.5 12.625 C5.62523221 15.84200205 3.65917083 17.36477798 -0.5625 18.3125 C-4.8677543 17.30488729 -6.18409957 15.3031948 -8.5 11.625 C-9.125 8.5625 -9.125 8.5625 -8.5 5.625 C-5.89210172 1.98974785 -4.4297642 0.79102932 0 0 Z " fill="#DAD5E8" transform="translate(492.5,314.375)"/>
<path d="M0 0 C4.45850936 0.79616239 5.90783917 1.93313458 8.5 5.625 C9.1875 9.125 9.1875 9.125 8.5 12.625 C5.62523221 15.84200205 3.65917083 17.36477798 -0.5625 18.3125 C-4.8677543 17.30488729 -6.18409957 15.3031948 -8.5 11.625 C-9.125 8.5625 -9.125 8.5625 -8.5 5.625 C-5.89210172 1.98974785 -4.4297642 0.79102932 0 0 Z M-4.3125 3.6875 C-6.17036623 6.71875543 -5.87133265 9.15922859 -5.5 12.625 C-4.45625978 14.66951019 -4.45625978 14.66951019 -2.5 15.625 C0.32115488 16.04817323 1.83950907 16.01218434 4.3125 14.5625 C6.17036623 11.53124457 5.87133265 9.09077141 5.5 5.625 C4.45625978 3.58048981 4.45625978 3.58048981 2.5 2.625 C-0.32115488 2.20182677 -1.83950907 2.23781566 -4.3125 3.6875 Z " fill="#6B56A3" transform="translate(492.5,314.375)"/>
<path d="M0 0 C1.65 0 3.3 0 5 0 C5 1.32 5 2.64 5 4 C5.30404678 5.67225729 5.63128912 7.34080104 6 9 C4 9 2 9 0 9 C0 6.03 0 3.06 0 0 Z " fill="#6A55A2" transform="translate(490,319)"/>
<path d="M0 0 C3.66666667 0 7.33333333 0 11 0 C11 1.65 11 3.3 11 5 C7.7 5 4.4 5 1 5 C0.67 3.35 0.34 1.7 0 0 Z " fill="#535353" transform="translate(380,276)"/>
<path d="M0 0 C0.99 0.33 1.98 0.66 3 1 C2.01 1.495 2.01 1.495 1 2 C1 5.3 1 8.6 1 12 C0.01 12 -0.98 12 -2 12 C-3.40457737 9.19084526 -3.24895157 7.11189466 -3 4 C-1.5 1.625 -1.5 1.625 0 0 Z " fill="#6F5BA5" transform="translate(487,316)"/>
<path d="M0 0 C2.9375 0.375 2.9375 0.375 6 1 C7.4783226 3.95664519 7.06032783 6.74229737 7 10 C6.01 10.495 6.01 10.495 5 11 C2.875 6.375 2.875 6.375 4 3 C2.68 2.01 1.36 1.02 0 0 Z " fill="#F0EEF5" transform="translate(491,317)"/>
<path d="M0 0 C3.49186021 -0.20145347 6.19917389 -0.34907805 9.4375 1.0625 C11.76643994 3.95038552 11.27050795 6.41576962 11 10 C9.79371992 7.66785852 8.8345262 5.50357861 8 3 C5.36 2.67 2.72 2.34 0 2 C0 1.34 0 0.68 0 0 Z " fill="#5A4399" transform="translate(489,315)"/>
</svg>
