<svg version="1.1" id="Layer_1" xmlns="http://www.w3.org/2000/svg" xmlns:xlink="http://www.w3.org/1999/xlink" x="0px" y="0px" viewBox="0 0 87 91.5" style="enable-background:new 0 0 87 91.5;" xml:space="preserve">
 <style type="text/css">
  .st0{fill:#E30613;}
	.st1{fill:#FFD618;}
 </style>
 <g>
  <path class="st0" d="M83.5,10.9c-0.1,0-0.2,0-0.3,0c0,0-0.1,0-0.1,0c0,0-0.1,0-0.2,0s-0.1,0-0.2,0c0,0-0.1,0-0.1,0
		c-1.7,0.2-3.1,1.5-3.4,3.2c-6.1,23.7-18.4,41.7-33.3,48c13.6-1.8,25.6-10.8,33.7-23.9c-2.5,9.7-7.1,18.7-13.3,26.5
		c-6.6,3-13.8,4.6-21,4.6c-15.7,0-30.2-7.3-41.7-19.6c-0.4-0.4-0.9-0.7-1.5-0.7c-0.1,0-0.2,0-0.3,0c0,0,0,0-0.1,0
		c-0.1,0-0.2,0-0.4,0.1l0,0c-0.1,0-0.2,0.1-0.4,0.1c0,0,0,0,0,0c-0.1,0.1-0.2,0.1-0.4,0.2c-0.2,0.1-0.3,0.3-0.4,0.4
		c9.9,16.8,26,28.4,44.5,30.8c-9.6,3.4-20.1,3-29.4-1c2.5,2.7,5.4,5,8.5,7l0,0c0.2,0.1,0.4,0.3,0.6,0.4c0,0,0.1,0,0.1,0.1
		c0.2,0.1,0.4,0.2,0.6,0.3c0,0,0.1,0.1,0.1,0.1c0.2,0.1,0.4,0.2,0.6,0.3l0.2,0.1c0.2,0.1,0.4,0.2,0.6,0.3c0.1,0,0.1,0.1,0.2,0.1
		c0.2,0.1,0.4,0.2,0.6,0.3c0.1,0,0.1,0.1,0.2,0.1c0.2,0.1,0.4,0.2,0.6,0.3c0.1,0,0.1,0.1,0.2,0.1c0.2,0.1,0.4,0.2,0.6,0.2
		c0,0,0.1,0,0.1,0.1c0.9,0.4,1.8,0.7,2.6,1l0.3,0.1c0.1,0,0.3,0.1,0.5,0.1c0.1,0,0.2,0.1,0.3,0.1c0.1,0,0.3,0.1,0.4,0.1
		c0.1,0,0.2,0.1,0.4,0.1s0.3,0.1,0.4,0.1c0.1,0,0.3,0.1,0.4,0.1c0.1,0,0.3,0.1,0.4,0.1S34.8,91,35,91c0.1,0,0.3,0.1,0.4,0.1
		c0.1,0,0.3,0,0.4,0.1c0.1,0,0.3,0,0.4,0.1c0.1,0,0.3,0,0.4,0.1s0.2,0,0.4,0c0.1,0,0.3,0,0.5,0c0.1,0,0.2,0,0.4,0c0.2,0,0.3,0,0.5,0
		c0.1,0,0.2,0,0.3,0c0.2,0,0.4,0,0.6,0c0.1,0,0.2,0,0.3,0c0.3,0,0.6,0,0.8,0c16.6,0,31.2-14.1,39.5-35.3l0,0
		c4.5-11.9,6.9-24.4,7.1-37.1c0-0.2,0-0.4,0-0.6c0-0.9,0-1.7,0-2.6v-0.7C87.1,13.2,85.6,11.3,83.5,10.9">
  </path>
  <path class="st1" d="M0,49.7c0.1-0.2,0.3-0.3,0.4-0.4c0.9-0.7,2.3-0.6,3,0.3c11.5,12.3,26,19.6,41.7,19.6c12.6,0,24.5-4.7,34.6-13
		C76.7,64.6,72,72.3,66,79c-4.7,1.3-9.6,2-14.6,2C30,80.9,11.1,68.5,0,49.7">
  </path>
  <path class="st0" d="M87,15.9v-0.7v0c0-1-0.4-2-1-2.8c0,0,0,0,0,0c-0.1-0.2-0.3-0.4-0.5-0.5c0,0-0.1-0.1-0.2-0.1
		c-0.1-0.1-0.3-0.2-0.4-0.3c-0.1-0.1-0.2-0.1-0.4-0.2c-0.1-0.1-0.2-0.1-0.3-0.1C84,11,83.8,11,83.5,10.9c-0.2,0-0.4,0-0.7,0
		c-0.1,0-0.2,0-0.2,0c-0.1,0-0.2,0-0.2,0v0c-1.6,0.3-2.9,1.5-3.2,3.1c-6.1,23.7-20.3,40.8-33.3,48c13.6-1.8,25.6-10.8,33.7-23.9
		c-3.7,13.5-10.6,25.1-19.5,33C55.1,73,49.8,73.9,44.6,74C27.5,74,12.3,64.2,2,48.8c-0.6-0.1-1.1,0.1-1.6,0.4
		c-0.2,0.1-0.3,0.3-0.4,0.4c9.9,16.8,25.9,28.4,44.5,30.8c-9.6,3.4-20.1,3-29.4-1c0.6,0.6,1.2,1.2,1.8,1.7h0
		c0.1,0.1,0.3,0.2,0.4,0.4c0.3,0.3,0.6,0.5,0.8,0.8c0.1,0.1,0.3,0.2,0.4,0.4c0.3,0.3,0.6,0.5,1,0.8c0,0,0.1,0.1,0.1,0.1
		c1.2,1,2.4,1.8,3.7,2.7c0.1,0.1,0.2,0.1,0.3,0.2c0.3,0.2,0.6,0.4,1,0.6c0.2,0.1,0.4,0.2,0.5,0.3c0.3,0.2,0.6,0.3,0.9,0.5
		c0.2,0.1,0.4,0.2,0.6,0.3c0.3,0.1,0.6,0.3,0.9,0.4c0.2,0.1,0.5,0.2,0.7,0.3c0.3,0.1,0.6,0.2,0.8,0.3c0.2,0.1,0.5,0.2,0.7,0.3
		c0.3,0.1,0.5,0.2,0.8,0.3c0.3,0.1,0.5,0.2,0.8,0.3c0.3,0.1,0.5,0.2,0.8,0.2c0.3,0.1,0.6,0.1,0.8,0.2c0.3,0.1,0.5,0.1,0.8,0.2
		c0.3,0.1,0.6,0.1,0.9,0.2c0.2,0,0.5,0.1,0.7,0.1c0.3,0.1,0.6,0.1,1,0.1c0.2,0,0.5,0.1,0.7,0.1c0.4,0,0.7,0.1,1.1,0.1
		c0.2,0,0.4,0,0.6,0c0.6,0,1.1,0,1.7,0c9.5,0,18.3-4.6,25.7-12.5l0,0c0,0,0,0,0-0.1c0.5-0.6,1-1.1,1.5-1.7c0.1-0.1,0.2-0.2,0.3-0.3
		c0.5-0.6,1-1.2,1.4-1.8c0.1-0.1,0.2-0.3,0.3-0.4c0.5-0.6,0.9-1.2,1.4-1.9c0.1-0.1,0.2-0.3,0.3-0.5c0.4-0.6,0.9-1.3,1.3-1.9
		c0.1-0.2,0.2-0.3,0.3-0.5c0.4-0.6,0.8-1.3,1.2-2c0.1-0.2,0.2-0.4,0.3-0.6c0.4-0.7,0.8-1.4,1.1-2c0.1-0.2,0.2-0.4,0.3-0.6
		c0.4-0.7,0.7-1.4,1.1-2.1c0.1-0.2,0.2-0.4,0.3-0.7c0.3-0.7,0.7-1.5,1-2.2c0.1-0.1,0.1-0.3,0.2-0.4l0,0c5-11.9,7.8-24.6,8.3-37.5
		c0,0,0,0,0-0.1c0-0.4,0-0.9,0-1.4c0-0.3,0-0.6,0-0.9C87,18.3,87,17.1,87,15.9">
  </path>
  <path class="st0" d="M15.1,3.1c0,0,52,3.1,30,58.2C45.1,61.2,126.3-16.2,15.1,3.1">
  </path>
 </g>
</svg>